<svg width="18" height="15" viewBox="0 0 18 15" fill="none" xmlns="http://www.w3.org/2000/svg">
<g clip-path="url(#clip0_2264_636)">
<path fill-rule="evenodd" clip-rule="evenodd" d="M-0.00390625 0.0292969H25.6461V1.10664H-0.00390625V0.0292969ZM-0.00390625 2.18398H25.6461V3.26133H-0.00390625V2.18398ZM-0.00390625 4.33594H25.6461V5.41602H-0.00390625V4.33594ZM-0.00390625 6.49062H25.6461V7.56797H-0.00390625V6.49062ZM-0.00390625 8.64531H25.6461V9.72266H-0.00390625V8.64531ZM-0.00390625 10.7973H25.6461V11.8746H-0.00390625V10.7973ZM-0.00390625 12.952H25.6461V14.0293H-0.00390625V12.952Z" fill="#BD3D44"/>
<path fill-rule="evenodd" clip-rule="evenodd" d="M-0.00390625 1.10645H25.6461V2.18379H-0.00390625V1.10645ZM-0.00390625 3.26113H25.6461V4.33574H-0.00390625V3.26113ZM-0.00390625 5.41309H25.6461V6.49043H-0.00390625V5.41309ZM-0.00390625 7.56777H25.6461V8.64512H-0.00390625V7.56777ZM-0.00390625 9.72246H25.6461V10.7998H-0.00390625V9.72246ZM-0.00390625 11.8744H25.6461V12.9518H-0.00390625V11.8744Z" fill="white"/>
<path fill-rule="evenodd" clip-rule="evenodd" d="M-0.00341797 0.0292969H10.2561V7.56797H-0.00341797V0.0292969Z" fill="#192F5D"/>
<path fill-rule="evenodd" clip-rule="evenodd" d="M0.853027 0.352051L0.947949 0.650098H1.24854L1.00596 0.833301L1.09824 1.13408L0.853027 0.948144L0.610449 1.13135L0.702734 0.833301L0.45752 0.650098H0.763379L0.853027 0.352051ZM2.56426 0.352051L2.65654 0.650098H2.95977L2.71455 0.833301L2.80684 1.13408L2.56426 0.948144L2.31904 1.13135L2.41133 0.833301L2.16875 0.650098H2.46934L2.56426 0.352051ZM4.27285 0.352051L4.36777 0.650098H4.66572L4.42314 0.833301L4.51543 1.13408L4.27022 0.948144L4.02764 1.13135L4.11992 0.833301L3.87471 0.650098H4.17793L4.27285 0.352051ZM5.98408 0.352051L6.07637 0.650098H6.37959L6.13438 0.833301L6.2293 1.13408L5.98408 0.948144L5.73887 1.13135L5.83379 0.833301L5.58857 0.650098H5.88916L5.98408 0.352051ZM7.69268 0.352051L7.7876 0.650098H8.08818L7.84561 0.833301L7.93789 1.13408L7.69268 0.948144L7.4501 1.13135L7.54238 0.833301L7.2998 0.650098H7.60039L7.69268 0.352051ZM9.40391 0.352051L9.49619 0.650098H9.79941L9.5542 0.833301L9.64912 1.13408L9.40391 0.948144L9.15869 1.13135L9.25361 0.833301L9.0084 0.650098H9.31162L9.40391 0.352051ZM1.70996 1.10674L1.80225 1.40479H2.10547L1.86025 1.58799L1.9499 1.88604L1.7126 1.70283L1.46738 1.88604L1.55439 1.58799L1.31709 1.40479H1.61768L1.70996 1.10674ZM3.41855 1.10674L3.51348 1.40479H3.81406L3.56885 1.58799L3.66377 1.88604L3.41855 1.70283L3.17334 1.88604L3.26826 1.58799L3.02305 1.40479H3.32627L3.41855 1.10674ZM5.12979 1.10674L5.22207 1.40479H5.52529L5.28008 1.58799L5.37236 1.88604L5.12979 1.70283L4.88457 1.88604L4.97686 1.58799L4.73428 1.40479H5.03486L5.12979 1.10674ZM6.83838 1.10674L6.9333 1.40479H7.23389L6.98867 1.58799L7.08359 1.88604L6.83838 1.70283L6.5958 1.88604L6.68809 1.58799L6.44287 1.40479H6.74873L6.83838 1.10674ZM8.54961 1.10674L8.64189 1.40479H8.94512L8.6999 1.58799L8.79219 1.88604L8.54961 1.70283L8.30439 1.88604L8.39668 1.58799L8.1541 1.40479H8.45469L8.54961 1.10674ZM0.853027 1.85869L0.947949 2.16221H1.24854L1.00596 2.34541L1.09824 2.64346L0.853027 2.45752L0.610449 2.64346L0.702734 2.34268L0.45752 2.15947H0.763379L0.853027 1.85869ZM2.56426 1.85869L2.65654 2.15947H2.95977L2.71455 2.34268L2.80684 2.64072L2.56426 2.45478L2.31904 2.64072L2.41133 2.33994L2.16875 2.15674H2.46934L2.56426 1.85869ZM4.27285 1.85869L4.36777 2.15947H4.66572L4.42314 2.34268L4.51543 2.64072L4.27022 2.45478L4.02764 2.64072L4.11992 2.33994L3.87471 2.15674H4.17793L4.27285 1.85869ZM5.98408 1.85869L6.07637 2.15947H6.37959L6.13438 2.34268L6.2293 2.64072L5.98408 2.45478L5.73887 2.64072L5.83379 2.33994L5.58857 2.15674H5.88916L5.98408 1.85869ZM7.69268 1.85869L7.7876 2.15947H8.08818L7.84561 2.34268L7.93789 2.64072L7.69268 2.45478L7.4501 2.64072L7.54238 2.33994L7.2998 2.15674H7.60039L7.69268 1.85869ZM9.40391 1.85869L9.49619 2.15947H9.79941L9.5542 2.34268L9.64912 2.64072L9.40391 2.45478L9.15869 2.64072L9.25361 2.33994L9.0084 2.15674H9.31162L9.40391 1.85869ZM1.70996 2.61338L1.80225 2.91143H2.10547L1.86025 3.09463L1.95254 3.39541L1.70996 3.20947L1.46475 3.39268L1.55703 3.09463L1.31445 2.91143H1.61504L1.70996 2.61338ZM3.41855 2.61338L3.51348 2.91143H3.81406L3.56885 3.09463L3.66377 3.39541L3.41855 3.20947L3.17334 3.39268L3.26826 3.09463L3.02305 2.91143H3.32627L3.41855 2.61338ZM5.12979 2.61338L5.22207 2.91143H5.52529L5.28008 3.09463L5.37236 3.39541L5.12979 3.20947L4.88457 3.39268L4.97686 3.09463L4.73428 2.91143H5.03486L5.12979 2.61338ZM6.83838 2.61338L6.9333 2.91143H7.23389L6.99131 3.09463L7.08359 3.39541L6.83838 3.20947L6.5958 3.39268L6.68809 3.09463L6.44287 2.91143H6.74873L6.83838 2.61338ZM8.54961 2.61338L8.64189 2.91143H8.94512L8.6999 3.09463L8.79219 3.39541L8.54961 3.20947L8.30439 3.39268L8.39668 3.09463L8.1541 2.91143H8.45469L8.54961 2.61338ZM0.853027 3.36807L0.947949 3.66611H1.24854L1.00596 3.84932L1.09824 4.1501L0.853027 3.96416L0.610449 4.14736L0.702734 3.84932L0.45752 3.66611H0.763379L0.853027 3.36807ZM2.56426 3.36807L2.65654 3.66611H2.95977L2.71455 3.84932L2.80684 4.14736L2.56426 3.96416L2.31904 4.14736L2.41133 3.84932L2.16875 3.66611H2.46934L2.56426 3.36807ZM4.27285 3.36807L4.36777 3.66611H4.66572L4.42314 3.84932L4.51543 4.1501L4.27022 3.96416L4.02764 4.14736L4.11992 3.84932L3.87471 3.66611H4.17793L4.27285 3.36807ZM5.98408 3.36807L6.07637 3.66611H6.37959L6.13438 3.84932L6.2293 4.1501L5.98408 3.96416L5.73887 4.14736L5.83379 3.84932L5.58857 3.66611H5.88916L5.98408 3.36807ZM7.69268 3.36807L7.7876 3.66611H8.08818L7.84561 3.84932L7.93789 4.1501L7.69268 3.96416L7.4501 4.14736L7.54238 3.84932L7.2998 3.66611H7.60039L7.69268 3.36807ZM9.40391 3.36807L9.49619 3.66611H9.79941L9.5542 3.84932L9.64912 4.1501L9.40391 3.96416L9.15869 4.14736L9.25361 3.84932L9.0084 3.66611H9.31162L9.40391 3.36807ZM1.70996 4.12275L1.80225 4.4208H2.10547L1.86025 4.604L1.95254 4.90205L1.70996 4.71611L1.46475 4.90205L1.55703 4.60127L1.31445 4.41807H1.61504L1.70996 4.12275ZM3.41855 4.12275L3.51348 4.4208H3.81406L3.56885 4.604L3.66377 4.90205L3.41855 4.71611L3.17334 4.90205L3.26826 4.60127L3.02305 4.41807H3.32627L3.41855 4.12275ZM5.12979 4.12275L5.22207 4.4208H5.52529L5.28008 4.604L5.37236 4.90205L5.12979 4.71611L4.88457 4.90205L4.97686 4.60127L4.73428 4.41807H5.03486L5.12979 4.12275ZM6.83838 4.12275L6.9333 4.4208H7.23389L6.99131 4.604L7.08359 4.90205L6.83838 4.71611L6.5958 4.90205L6.68809 4.60127L6.44287 4.41807H6.74873L6.83838 4.12275ZM8.54961 4.12275L8.64189 4.4208H8.94512L8.6999 4.604L8.79219 4.90205L8.54961 4.71611L8.30439 4.90205L8.39668 4.60127L8.1541 4.41807H8.45469L8.54961 4.12275ZM0.853027 4.87471L0.947949 5.17549H1.24854L1.00596 5.35869L1.09824 5.654L0.853027 5.4708L0.610449 5.654L0.702734 5.35596L0.45752 5.17275H0.763379L0.853027 4.87471ZM2.56426 4.87471L2.65654 5.17549H2.95977L2.71455 5.35869L2.80947 5.654L2.56426 5.4708L2.31904 5.654L2.41396 5.35596L2.16875 5.17275H2.46934L2.56426 4.87471ZM4.27285 4.87471L4.36777 5.17549H4.66572L4.42314 5.35869L4.51543 5.654L4.27022 5.4708L4.02764 5.654L4.11992 5.35596L3.87471 5.17275H4.17793L4.27285 4.87471ZM5.98408 4.87471L6.07637 5.17549H6.37959L6.13438 5.35869L6.2293 5.654L5.98408 5.4708L5.73887 5.654L5.83379 5.35596L5.58857 5.17275H5.88916L5.98408 4.87471ZM7.69268 4.87471L7.7876 5.17549H8.08818L7.84561 5.35869L7.93789 5.654L7.69268 5.4708L7.4501 5.654L7.54238 5.35596L7.2998 5.17275H7.60039L7.69268 4.87471ZM9.40391 4.87471L9.49619 5.17549H9.79941L9.5542 5.35869L9.64912 5.654L9.40391 5.4708L9.15869 5.654L9.25361 5.35596L9.0084 5.17275H9.31162L9.40391 4.87471ZM1.70996 5.62939L1.80225 5.92744H2.10547L1.86025 6.11064L1.95254 6.41143L1.70996 6.22549L1.46475 6.40869L1.55703 6.11064L1.31445 5.92744H1.61504L1.70996 5.62939ZM3.41855 5.62939L3.51348 5.92744H3.81406L3.56885 6.11064L3.66377 6.41143L3.41855 6.22549L3.17334 6.40869L3.26826 6.11064L3.02305 5.92744H3.32627L3.41855 5.62939ZM5.12979 5.62939L5.22207 5.92744H5.52529L5.28008 6.11064L5.37236 6.41143L5.12979 6.22549L4.88457 6.40869L4.97686 6.11064L4.73428 5.92744H5.03486L5.12979 5.62939ZM6.83838 5.62939L6.9333 5.92744H7.23389L6.99131 6.11064L7.08359 6.41143L6.83838 6.22549L6.5958 6.40869L6.68809 6.11064L6.44287 5.92744H6.74873L6.83838 5.62939ZM8.54961 5.62939L8.64189 5.92744H8.94512L8.6999 6.11064L8.79219 6.41143L8.54961 6.22549L8.30439 6.40869L8.39668 6.11064L8.1541 5.92744H8.45469L8.54961 5.62939ZM0.853027 6.38408L0.947949 6.68213H1.24854L1.00596 6.86533L1.09824 7.16338L0.853027 6.98018L0.610449 7.16338L0.702734 6.8626L0.45752 6.67939H0.763379L0.853027 6.38408ZM2.56426 6.38408L2.65654 6.68213H2.95977L2.71455 6.86533L2.80947 7.16338L2.56426 6.98018L2.31904 7.16338L2.41396 6.8626L2.16875 6.67939H2.46934L2.56426 6.38408ZM4.27285 6.38408L4.36777 6.68213H4.66572L4.42842 6.86533L4.5207 7.16338L4.27549 6.98018L4.03291 7.16338L4.1252 6.8626L3.87998 6.67939H4.1832L4.27285 6.38408ZM5.98408 6.38408L6.07637 6.68213H6.37959L6.13438 6.86533L6.2293 7.16338L5.98408 6.98018L5.73887 7.16338L5.83379 6.8626L5.58857 6.67939H5.88916L5.98408 6.38408ZM7.69268 6.38408L7.7876 6.68213H8.08818L7.84561 6.86533L7.93789 7.16338L7.69268 6.98018L7.4501 7.16338L7.54238 6.8626L7.2998 6.67939H7.60039L7.69268 6.38408ZM9.40391 6.38408L9.49619 6.68213H9.79941L9.5542 6.86533L9.64912 7.16338L9.40391 6.98018L9.15869 7.16338L9.25361 6.8626L9.0084 6.67939H9.31162L9.40391 6.38408Z" fill="white"/>
</g>
<defs>
<clipPath id="clip0_2264_636">
<rect width="18" height="14" fill="white" transform="translate(0 0.0292969)"/>
</clipPath>
</defs>
</svg>
